<svg width="25" height="24" viewBox="0 0 25 24" fill="none" xmlns="http://www.w3.org/2000/svg">
    <path d="M2.00582 10.6067C8.77128 13.0422 15.7864 14.9366 22.6559 17.0599C24.1964 17.5387 24.8835 15.1239 23.343 14.6659C16.4735 12.5426 9.45814 10.6691 2.69268 8.23352C1.17305 7.69229 0.486189 10.0863 2.00582 10.6275V10.6067Z" fill="#888198"/>
    <path d="M5.98148 1.55145C7.31376 8.62916 9.24971 15.6028 10.9151 22.618C11.2898 24.1793 13.7046 23.5548 13.3299 21.9936C11.6645 14.9991 9.72858 8.00468 8.3963 0.92697C8.10487 -0.655107 5.69005 -0.0306289 5.98148 1.55145Z" fill="#888198"/>
    <path d="M2.17209 19.1833C7.58445 15.0199 12.6639 10.4194 17.8889 6.02707C19.1171 4.98623 17.3891 3.196 16.1609 4.21602C10.9359 8.60836 5.85675 13.2089 0.444382 17.3723C-0.825443 18.3506 0.90226 20.1617 2.17209 19.1833Z" fill="#888198"/>
</svg>
